{
    "asset" : {
        "generator" : "Khronos glTF Blender I/O v1.1.46",
        "version" : "2.0"
    },
    "scene" : 0,
    "scenes" : [
        {
            "name" : "Scene",
            "nodes" : [
                0
            ]
        }
    ],
    "nodes" : [
        {
            "mesh" : 0,
            "name" : "Icosphere.003",
            "rotation" : [
                -0.8304929733276367,
                -0.2708265781402588,
                -0.03837617486715317,
                0.48524391651153564
            ],
            "scale" : [
                0.5030685067176819,
                0.5030685663223267,
                0.5030685663223267
            ],
            "translation" : [
                0.25047561526298523,
                4.975208759307861,
                -7.038468360900879
            ]
        }
    ],
    "materials" : [
        {
            "doubleSided" : true,
            "emissiveFactor" : [
                0,
                0,
                0
            ],
            "name" : "Material.005",
            "pbrMetallicRoughness" : {
                "baseColorFactor" : [
                    0.00919242762029171,
                    0.8000000715255737,
                    0.06805632263422012,
                    1
                ],
                "metallicFactor" : 0,
                "roughnessFactor" : 0.5
            }
        },
        {
            "doubleSided" : true,
            "emissiveFactor" : [
                0,
                0,
                0
            ],
            "name" : "Material.002",
            "pbrMetallicRoughness" : {
                "baseColorFactor" : [
                    0.0469617061316967,
                    0.029533781111240387,
                    0.02777962014079094,
                    1
                ],
                "metallicFactor" : 0,
                "roughnessFactor" : 0.5151515007019043
            }
        },
        {
            "doubleSided" : true,
            "emissiveFactor" : [
                0,
                0,
                0
            ],
            "name" : "Material.001",
            "pbrMetallicRoughness" : {
                "baseColorFactor" : [
                    0.2665294408798218,
                    0.7356570959091187,
                    0.044292159378528595,
                    1
                ],
                "metallicFactor" : 0,
                "roughnessFactor" : 0.5
            }
        },
        {
            "doubleSided" : true,
            "emissiveFactor" : [
                0,
                0,
                0
            ],
            "name" : "Material.006",
            "pbrMetallicRoughness" : {
                "baseColorFactor" : [
                    0.1788620799779892,
                    0.11661551147699356,
                    0.07784316688776016,
                    1
                ],
                "metallicFactor" : 0,
                "roughnessFactor" : 0.5
            }
        },
        {
            "doubleSided" : true,
            "emissiveFactor" : [
                0,
                0,
                0
            ],
            "name" : "Material.004",
            "pbrMetallicRoughness" : {
                "baseColorFactor" : [
                    0.16565728187561035,
                    0.8000000715255737,
                    0.18649771809577942,
                    1
                ],
                "metallicFactor" : 0,
                "roughnessFactor" : 0.5
            }
        },
        {
            "doubleSided" : true,
            "emissiveFactor" : [
                0,
                0,
                0
            ],
            "name" : "Material.009",
            "pbrMetallicRoughness" : {
                "baseColorFactor" : [
                    0.03400781378149986,
                    0.039679642766714096,
                    0.03409633785486221,
                    1
                ],
                "metallicFactor" : 0,
                "roughnessFactor" : 1
            }
        }
    ],
    "meshes" : [
        {
            "name" : "Icosphere.005",
            "primitives" : [
                {
                    "attributes" : {
                        "POSITION" : 0,
                        "NORMAL" : 1,
                        "TEXCOORD_0" : 2
                    },
                    "indices" : 3,
                    "material" : 0
                },
                {
                    "attributes" : {
                        "POSITION" : 4,
                        "NORMAL" : 5,
                        "TEXCOORD_0" : 6
                    },
                    "indices" : 7,
                    "material" : 1
                },
                {
                    "attributes" : {
                        "POSITION" : 8,
                        "NORMAL" : 9,
                        "TEXCOORD_0" : 10
                    },
                    "indices" : 11,
                    "material" : 2
                },
                {
                    "attributes" : {
                        "POSITION" : 12,
                        "NORMAL" : 13,
                        "TEXCOORD_0" : 14
                    },
                    "indices" : 15,
                    "material" : 3
                },
                {
                    "attributes" : {
                        "POSITION" : 16,
                        "NORMAL" : 17,
                        "TEXCOORD_0" : 18
                    },
                    "indices" : 3,
                    "material" : 4
                },
                {
                    "attributes" : {
                        "POSITION" : 19,
                        "NORMAL" : 20,
                        "TEXCOORD_0" : 21
                    },
                    "indices" : 22,
                    "material" : 5
                }
            ]
        }
    ],
    "accessors" : [
        {
            "bufferView" : 0,
            "componentType" : 5126,
            "count" : 240,
            "max" : [
                1.2863757610321045,
                1.2256054878234863,
                1.0060609579086304
            ],
            "min" : [
                -1.0270346403121948,
                -1.1711379289627075,
                -1.388700246810913
            ],
            "type" : "VEC3"
        },
        {
            "bufferView" : 1,
            "componentType" : 5126,
            "count" : 240,
            "type" : "VEC3"
        },
        {
            "bufferView" : 2,
            "componentType" : 5126,
            "count" : 240,
            "type" : "VEC2"
        },
        {
            "bufferView" : 3,
            "componentType" : 5123,
            "count" : 240,
            "type" : "SCALAR"
        },
        {
            "bufferView" : 4,
            "componentType" : 5126,
            "count" : 2216,
            "max" : [
                5.350754737854004,
                6.2021870613098145,
                -2.5038952827453613
            ],
            "min" : [
                -5.7668256759643555,
                -4.847121715545654,
                -12.726669311523438
            ],
            "type" : "VEC3"
        },
        {
            "bufferView" : 5,
            "componentType" : 5126,
            "count" : 2216,
            "type" : "VEC3"
        },
        {
            "bufferView" : 6,
            "componentType" : 5126,
            "count" : 2216,
            "type" : "VEC2"
        },
        {
            "bufferView" : 7,
            "componentType" : 5123,
            "count" : 3366,
            "type" : "SCALAR"
        },
        {
            "bufferView" : 8,
            "componentType" : 5126,
            "count" : 702,
            "max" : [
                5.863417148590088,
                6.231618404388428,
                5.008240699768066
            ],
            "min" : [
                -5.699554443359375,
                -5.134915828704834,
                -9.518214225769043
            ],
            "type" : "VEC3"
        },
        {
            "bufferView" : 9,
            "componentType" : 5126,
            "count" : 702,
            "type" : "VEC3"
        },
        {
            "bufferView" : 10,
            "componentType" : 5126,
            "count" : 702,
            "type" : "VEC2"
        },
        {
            "bufferView" : 11,
            "componentType" : 5123,
            "count" : 1080,
            "type" : "SCALAR"
        },
        {
            "bufferView" : 12,
            "componentType" : 5126,
            "count" : 1544,
            "max" : [
                1.7786986827850342,
                1.823448657989502,
                3.103785514831543
            ],
            "min" : [
                -3.741417646408081,
                -4.824592590332031,
                -5.165024757385254
            ],
            "type" : "VEC3"
        },
        {
            "bufferView" : 13,
            "componentType" : 5126,
            "count" : 1544,
            "type" : "VEC3"
        },
        {
            "bufferView" : 14,
            "componentType" : 5126,
            "count" : 1544,
            "type" : "VEC2"
        },
        {
            "bufferView" : 15,
            "componentType" : 5123,
            "count" : 2286,
            "type" : "SCALAR"
        },
        {
            "bufferView" : 16,
            "componentType" : 5126,
            "count" : 240,
            "max" : [
                2.926016330718994,
                -3.6906232833862305,
                1.340641975402832
            ],
            "min" : [
                -0.5340456962585449,
                -7.100525379180908,
                -2.286487102508545
            ],
            "type" : "VEC3"
        },
        {
            "bufferView" : 17,
            "componentType" : 5126,
            "count" : 240,
            "type" : "VEC3"
        },
        {
            "bufferView" : 18,
            "componentType" : 5126,
            "count" : 240,
            "type" : "VEC2"
        },
        {
            "bufferView" : 19,
            "componentType" : 5126,
            "count" : 192,
            "max" : [
                3.331479549407959,
                5.340936183929443,
                -4.058978080749512
            ],
            "min" : [
                0.6831933259963989,
                -1.3325049877166748,
                -7.581394672393799
            ],
            "type" : "VEC3"
        },
        {
            "bufferView" : 20,
            "componentType" : 5126,
            "count" : 192,
            "type" : "VEC3"
        },
        {
            "bufferView" : 21,
            "componentType" : 5126,
            "count" : 192,
            "type" : "VEC2"
        },
        {
            "bufferView" : 22,
            "componentType" : 5123,
            "count" : 288,
            "type" : "SCALAR"
        }
    ],
    "bufferViews" : [
        {
            "buffer" : 0,
            "byteLength" : 2880,
            "byteOffset" : 0
        },
        {
            "buffer" : 0,
            "byteLength" : 2880,
            "byteOffset" : 2880
        },
        {
            "buffer" : 0,
            "byteLength" : 1920,
            "byteOffset" : 5760
        },
        {
            "buffer" : 0,
            "byteLength" : 480,
            "byteOffset" : 7680
        },
        {
            "buffer" : 0,
            "byteLength" : 26592,
            "byteOffset" : 8160
        },
        {
            "buffer" : 0,
            "byteLength" : 26592,
            "byteOffset" : 34752
        },
        {
            "buffer" : 0,
            "byteLength" : 17728,
            "byteOffset" : 61344
        },
        {
            "buffer" : 0,
            "byteLength" : 6732,
            "byteOffset" : 79072
        },
        {
            "buffer" : 0,
            "byteLength" : 8424,
            "byteOffset" : 85804
        },
        {
            "buffer" : 0,
            "byteLength" : 8424,
            "byteOffset" : 94228
        },
        {
            "buffer" : 0,
            "byteLength" : 5616,
            "byteOffset" : 102652
        },
        {
            "buffer" : 0,
            "byteLength" : 2160,
            "byteOffset" : 108268
        },
        {
            "buffer" : 0,
            "byteLength" : 18528,
            "byteOffset" : 110428
        },
        {
            "buffer" : 0,
            "byteLength" : 18528,
            "byteOffset" : 128956
        },
        {
            "buffer" : 0,
            "byteLength" : 12352,
            "byteOffset" : 147484
        },
        {
            "buffer" : 0,
            "byteLength" : 4572,
            "byteOffset" : 159836
        },
        {
            "buffer" : 0,
            "byteLength" : 2880,
            "byteOffset" : 164408
        },
        {
            "buffer" : 0,
            "byteLength" : 2880,
            "byteOffset" : 167288
        },
        {
            "buffer" : 0,
            "byteLength" : 1920,
            "byteOffset" : 170168
        },
        {
            "buffer" : 0,
            "byteLength" : 2304,
            "byteOffset" : 172088
        },
        {
            "buffer" : 0,
            "byteLength" : 2304,
            "byteOffset" : 174392
        },
        {
            "buffer" : 0,
            "byteLength" : 1536,
            "byteOffset" : 176696
        },
        {
            "buffer" : 0,
            "byteLength" : 576,
            "byteOffset" : 178232
        }
    ],
    "buffers" : [
        {
            "byteLength" : 178808,
            "uri" : "data:application/octet-stream;base64,"
        }
    ]
}
