{
    "asset" : {
        "generator" : "Khronos glTF Blender I/O v1.1.46",
        "version" : "2.0"
    },
    "scene" : 0,
    "scenes" : [
        {
            "name" : "Scene",
            "nodes" : [
                2
            ]
        }
    ],
    "nodes" : [
        {
            "mesh" : 0,
            "name" : "Cylinder",
            "scale" : [
                1.127882480621338,
                1.047974944114685,
                1.127882480621338
            ],
            "translation" : [
                -0.01616046577692032,
                -0.547869086265564,
                0.010512351989746094
            ]
        },
        {
            "mesh" : 1,
            "name" : "Cylinder.001",
            "scale" : [
                1.127882480621338,
                1.047974944114685,
                1.127882480621338
            ],
            "translation" : [
                -0.01616046577692032,
                -0.547869086265564,
                0.010512351989746094
            ]
        },
        {
            "children" : [
                0,
                1
            ],
            "mesh" : 2,
            "name" : "Circle",
            "scale" : [
                1.1596940755844116,
                1.1596940755844116,
                1.1596940755844116
            ],
            "translation" : [
                0.055090904235839844,
                1.5418883562088013,
                -4.980998992919922
            ]
        }
    ],
    "materials" : [
        {
            "doubleSided" : true,
            "name" : "Material.001",
            "pbrMetallicRoughness" : {}
        },
        {
            "doubleSided" : true,
            "emissiveFactor" : [
                0,
                0,
                0
            ],
            "name" : "Material.006",
            "pbrMetallicRoughness" : {
                "baseColorFactor" : [
                    0.018848750740289688,
                    0.0033023108262568712,
                    0,
                    1
                ],
                "metallicFactor" : 0,
                "roughnessFactor" : 0.5
            }
        },
        {
            "doubleSided" : true,
            "emissiveFactor" : [
                0,
                0,
                0
            ],
            "name" : "Material.002",
            "pbrMetallicRoughness" : {
                "baseColorFactor" : [
                    0.800000011920929,
                    0.800000011920929,
                    0.800000011920929,
                    1
                ],
                "metallicFactor" : 0.17171716690063477,
                "roughnessFactor" : 1
            }
        }
    ],
    "meshes" : [
        {
            "name" : "Cylinder",
            "primitives" : [
                {
                    "attributes" : {
                        "POSITION" : 0,
                        "NORMAL" : 1,
                        "TEXCOORD_0" : 2
                    },
                    "indices" : 3,
                    "material" : 0
                }
            ]
        },
        {
            "name" : "Cylinder.001",
            "primitives" : [
                {
                    "attributes" : {
                        "POSITION" : 4,
                        "NORMAL" : 5,
                        "TEXCOORD_0" : 6
                    },
                    "indices" : 7,
                    "material" : 1
                }
            ]
        },
        {
            "name" : "Circle.002",
            "primitives" : [
                {
                    "attributes" : {
                        "POSITION" : 8,
                        "NORMAL" : 9,
                        "TEXCOORD_0" : 10
                    },
                    "indices" : 11,
                    "material" : 2
                }
            ]
        }
    ],
    "accessors" : [
        {
            "bufferView" : 0,
            "componentType" : 5126,
            "count" : 733,
            "max" : [
                1.1996653079986572,
                0.6549999713897705,
                0.7492830157279968
            ],
            "min" : [
                -0.7492830157279968,
                -0.4435456693172455,
                -0.7492830753326416
            ],
            "type" : "VEC3"
        },
        {
            "bufferView" : 1,
            "componentType" : 5126,
            "count" : 733,
            "type" : "VEC3"
        },
        {
            "bufferView" : 2,
            "componentType" : 5126,
            "count" : 733,
            "type" : "VEC2"
        },
        {
            "bufferView" : 3,
            "componentType" : 5123,
            "count" : 3912,
            "type" : "SCALAR"
        },
        {
            "bufferView" : 4,
            "componentType" : 5126,
            "count" : 192,
            "max" : [
                0.7326676845550537,
                0.33144593238830566,
                0.698212742805481
            ],
            "min" : [
                -0.6981943249702454,
                -0.4061907231807709,
                -0.6982091069221497
            ],
            "type" : "VEC3"
        },
        {
            "bufferView" : 5,
            "componentType" : 5126,
            "count" : 192,
            "type" : "VEC3"
        },
        {
            "bufferView" : 6,
            "componentType" : 5126,
            "count" : 192,
            "type" : "VEC2"
        },
        {
            "bufferView" : 7,
            "componentType" : 5123,
            "count" : 948,
            "type" : "SCALAR"
        },
        {
            "bufferView" : 8,
            "componentType" : 5126,
            "count" : 192,
            "max" : [
                1.0138273239135742,
                -0.7797457575798035,
                1.0138273239135742
            ],
            "min" : [
                -1.0138273239135742,
                -1.0451302528381348,
                -1.0138273239135742
            ],
            "type" : "VEC3"
        },
        {
            "bufferView" : 9,
            "componentType" : 5126,
            "count" : 192,
            "type" : "VEC3"
        },
        {
            "bufferView" : 10,
            "componentType" : 5126,
            "count" : 192,
            "type" : "VEC2"
        },
        {
            "bufferView" : 11,
            "componentType" : 5123,
            "count" : 1140,
            "type" : "SCALAR"
        }
    ],
    "bufferViews" : [
        {
            "buffer" : 0,
            "byteLength" : 8796,
            "byteOffset" : 0
        },
        {
            "buffer" : 0,
            "byteLength" : 8796,
            "byteOffset" : 8796
        },
        {
            "buffer" : 0,
            "byteLength" : 5864,
            "byteOffset" : 17592
        },
        {
            "buffer" : 0,
            "byteLength" : 7824,
            "byteOffset" : 23456
        },
        {
            "buffer" : 0,
            "byteLength" : 2304,
            "byteOffset" : 31280
        },
        {
            "buffer" : 0,
            "byteLength" : 2304,
            "byteOffset" : 33584
        },
        {
            "buffer" : 0,
            "byteLength" : 1536,
            "byteOffset" : 35888
        },
        {
            "buffer" : 0,
            "byteLength" : 1896,
            "byteOffset" : 37424
        },
        {
            "buffer" : 0,
            "byteLength" : 2304,
            "byteOffset" : 39320
        },
        {
            "buffer" : 0,
            "byteLength" : 2304,
            "byteOffset" : 41624
        },
        {
            "buffer" : 0,
            "byteLength" : 1536,
            "byteOffset" : 43928
        },
        {
            "buffer" : 0,
            "byteLength" : 2280,
            "byteOffset" : 45464
        }
    ],
    "buffers" : [
        {
            "byteLength" : 47744,
            "uri" : "data:application/octet-stream;base64,"
        }
    ]
}
