{
    "asset" : {
        "generator" : "Khronos glTF Blender I/O v1.2.75",
        "version" : "2.0"
    },
    "scene" : 0,
    "scenes" : [
        {
            "name" : "Scene",
            "nodes" : [
                0
            ]
        }
    ],
    "nodes" : [
        {
            "mesh" : 0,
            "name" : "Plane",
            "rotation" : [
                -0.02091255784034729,
                0,
                0,
                0.9997813105583191
            ],
            "scale" : [
                0.863300085067749,
                0.863300085067749,
                0.863300085067749
            ],
            "translation" : [
                0.043690092861652374,
                -0.7899895906448364,
                -0.7556124925613403
            ]
        }
    ],
    "materials" : [
        {
            "doubleSided" : true,
            "emissiveFactor" : [
                0,
                0,
                0
            ],
            "name" : "Material.005",
            "pbrMetallicRoughness" : {
                "baseColorFactor" : [
                    0.04202865809202194,
                    0.013446583412587643,
                    0.00500986073166132,
                    1
                ],
                "metallicFactor" : 0,
                "roughnessFactor" : 0.5
            }
        },
        {
            "doubleSided" : true,
            "emissiveFactor" : [
                0,
                0,
                0
            ],
            "name" : "Material.003",
            "pbrMetallicRoughness" : {
                "baseColorFactor" : [
                    0.07725793123245239,
                    0.4969273805618286,
                    0.04956388473510742,
                    1
                ],
                "metallicFactor" : 0,
                "roughnessFactor" : 0.5
            }
        },
        {
            "doubleSided" : true,
            "emissiveFactor" : [
                0,
                0,
                0
            ],
            "name" : "Material",
            "pbrMetallicRoughness" : {
                "baseColorFactor" : [
                    0.03930031135678291,
                    0.18447178602218628,
                    0.01475733332335949,
                    1
                ],
                "metallicFactor" : 0,
                "roughnessFactor" : 0.4000000059604645
            }
        },
        {
            "doubleSided" : true,
            "emissiveFactor" : [
                0,
                0,
                0
            ],
            "name" : "Material.002",
            "pbrMetallicRoughness" : {
                "baseColorFactor" : [
                    0.016893580555915833,
                    0.12371218204498291,
                    0.008509854786098003,
                    1
                ],
                "metallicFactor" : 0,
                "roughnessFactor" : 0.5
            }
        },
        {
            "doubleSided" : true,
            "emissiveFactor" : [
                0,
                0,
                0
            ],
            "name" : "Material.004",
            "pbrMetallicRoughness" : {
                "baseColorFactor" : [
                    0.25687432289123535,
                    0.8000000715255737,
                    0.2039446085691452,
                    1
                ],
                "metallicFactor" : 0,
                "roughnessFactor" : 0.5
            }
        }
    ],
    "meshes" : [
        {
            "name" : "Plane.001",
            "primitives" : [
                {
                    "attributes" : {
                        "POSITION" : 0,
                        "NORMAL" : 1,
                        "TEXCOORD_0" : 2
                    },
                    "indices" : 3,
                    "material" : 0
                },
                {
                    "attributes" : {
                        "POSITION" : 4,
                        "NORMAL" : 5,
                        "TEXCOORD_0" : 6
                    },
                    "indices" : 7,
                    "material" : 1
                },
                {
                    "attributes" : {
                        "POSITION" : 8,
                        "NORMAL" : 9,
                        "TEXCOORD_0" : 10
                    },
                    "indices" : 11,
                    "material" : 2
                },
                {
                    "attributes" : {
                        "POSITION" : 12,
                        "NORMAL" : 13,
                        "TEXCOORD_0" : 14
                    },
                    "indices" : 11,
                    "material" : 3
                },
                {
                    "attributes" : {
                        "POSITION" : 15,
                        "NORMAL" : 16,
                        "TEXCOORD_0" : 17
                    },
                    "indices" : 18,
                    "material" : 4
                }
            ]
        }
    ],
    "accessors" : [
        {
            "bufferView" : 0,
            "componentType" : 5126,
            "count" : 88,
            "max" : [
                0.12084954977035522,
                1.9582102298736572,
                0.18382441997528076
            ],
            "min" : [
                -0.12155145406723022,
                1.1559070348739624,
                -0.0584162212908268
            ],
            "type" : "VEC3"
        },
        {
            "bufferView" : 1,
            "componentType" : 5126,
            "count" : 88,
            "type" : "VEC3"
        },
        {
            "bufferView" : 2,
            "componentType" : 5126,
            "count" : 88,
            "type" : "VEC2"
        },
        {
            "bufferView" : 3,
            "componentType" : 5123,
            "count" : 132,
            "type" : "SCALAR"
        },
        {
            "bufferView" : 4,
            "componentType" : 5126,
            "count" : 64,
            "max" : [
                0.5800021290779114,
                3.7030296325683594,
                0.5273107290267944
            ],
            "min" : [
                -0.5141715407371521,
                2.3086109161376953,
                -0.563808798789978
            ],
            "type" : "VEC3"
        },
        {
            "bufferView" : 5,
            "componentType" : 5126,
            "count" : 64,
            "type" : "VEC3"
        },
        {
            "bufferView" : 6,
            "componentType" : 5126,
            "count" : 64,
            "type" : "VEC2"
        },
        {
            "bufferView" : 7,
            "componentType" : 5123,
            "count" : 84,
            "type" : "SCALAR"
        },
        {
            "bufferView" : 8,
            "componentType" : 5126,
            "count" : 32,
            "max" : [
                0.6297562718391418,
                3.1305127143859863,
                0.6797816157341003
            ],
            "min" : [
                -0.6583353877067566,
                1.8820931911468506,
                -0.6573637127876282
            ],
            "type" : "VEC3"
        },
        {
            "bufferView" : 9,
            "componentType" : 5126,
            "count" : 32,
            "type" : "VEC3"
        },
        {
            "bufferView" : 10,
            "componentType" : 5126,
            "count" : 32,
            "type" : "VEC2"
        },
        {
            "bufferView" : 11,
            "componentType" : 5123,
            "count" : 42,
            "type" : "SCALAR"
        },
        {
            "bufferView" : 12,
            "componentType" : 5126,
            "count" : 32,
            "max" : [
                0.49654102325439453,
                2.7027390003204346,
                0.5381643772125244
            ],
            "min" : [
                -0.49217861890792847,
                1.6669739484786987,
                -0.4449268877506256
            ],
            "type" : "VEC3"
        },
        {
            "bufferView" : 13,
            "componentType" : 5126,
            "count" : 32,
            "type" : "VEC3"
        },
        {
            "bufferView" : 14,
            "componentType" : 5126,
            "count" : 32,
            "type" : "VEC2"
        },
        {
            "bufferView" : 15,
            "componentType" : 5126,
            "count" : 32,
            "max" : [
                0.561042070388794,
                3.95971941947937,
                0.41717857122421265
            ],
            "min" : [
                -0.4062432646751404,
                2.908510446548462,
                -0.5494989156723022
            ],
            "type" : "VEC3"
        },
        {
            "bufferView" : 16,
            "componentType" : 5126,
            "count" : 32,
            "type" : "VEC3"
        },
        {
            "bufferView" : 17,
            "componentType" : 5126,
            "count" : 32,
            "type" : "VEC2"
        },
        {
            "bufferView" : 18,
            "componentType" : 5123,
            "count" : 42,
            "type" : "SCALAR"
        }
    ],
    "bufferViews" : [
        {
            "buffer" : 0,
            "byteLength" : 1056,
            "byteOffset" : 0
        },
        {
            "buffer" : 0,
            "byteLength" : 1056,
            "byteOffset" : 1056
        },
        {
            "buffer" : 0,
            "byteLength" : 704,
            "byteOffset" : 2112
        },
        {
            "buffer" : 0,
            "byteLength" : 264,
            "byteOffset" : 2816
        },
        {
            "buffer" : 0,
            "byteLength" : 768,
            "byteOffset" : 3080
        },
        {
            "buffer" : 0,
            "byteLength" : 768,
            "byteOffset" : 3848
        },
        {
            "buffer" : 0,
            "byteLength" : 512,
            "byteOffset" : 4616
        },
        {
            "buffer" : 0,
            "byteLength" : 168,
            "byteOffset" : 5128
        },
        {
            "buffer" : 0,
            "byteLength" : 384,
            "byteOffset" : 5296
        },
        {
            "buffer" : 0,
            "byteLength" : 384,
            "byteOffset" : 5680
        },
        {
            "buffer" : 0,
            "byteLength" : 256,
            "byteOffset" : 6064
        },
        {
            "buffer" : 0,
            "byteLength" : 84,
            "byteOffset" : 6320
        },
        {
            "buffer" : 0,
            "byteLength" : 384,
            "byteOffset" : 6404
        },
        {
            "buffer" : 0,
            "byteLength" : 384,
            "byteOffset" : 6788
        },
        {
            "buffer" : 0,
            "byteLength" : 256,
            "byteOffset" : 7172
        },
        {
            "buffer" : 0,
            "byteLength" : 384,
            "byteOffset" : 7428
        },
        {
            "buffer" : 0,
            "byteLength" : 384,
            "byteOffset" : 7812
        },
        {
            "buffer" : 0,
            "byteLength" : 256,
            "byteOffset" : 8196
        },
        {
            "buffer" : 0,
            "byteLength" : 84,
            "byteOffset" : 8452
        }
    ],
    "buffers" : [
        {
            "byteLength" : 8536,
            "uri" : "data:application/octet-stream;base64,"
        }
    ]
}
