{
    "asset" : {
        "generator" : "Khronos glTF Blender I/O v1.2.75",
        "version" : "2.0"
    },
    "scene" : 0,
    "scenes" : [
        {
            "name" : "Scene",
            "nodes" : [
                0,
                1,
                2,
                3,
                4,
                5
            ]
        }
    ],
    "nodes" : [
        {
            "name" : "Plane",
            "rotation" : [
                -0.032117776572704315,
                0.0028686844743788242,
                0.08891720324754715,
                0.9955168962478638
            ],
            "translation" : [
                0.4734014868736267,
                0.03209805488586426,
                0.16996176540851593
            ]
        },
        {
            "name" : "Plane.001",
            "rotation" : [
                -0.027570707723498344,
                0.019987691193819046,
                -0.3118581175804138,
                0.9495182037353516
            ],
            "scale" : [
                0.4627881646156311,
                0.6925854682922363,
                0.3307592570781708
            ],
            "translation" : [
                0.2704107463359833,
                2.1131536960601807,
                0.07969547808170319
            ]
        },
        {
            "name" : "Plane.002",
            "rotation" : [
                -0.4406338930130005,
                0.854893684387207,
                -0.18724696338176727,
                0.1998426765203476
            ],
            "scale" : [
                0.3586067259311676,
                0.5366727709770203,
                0.25629979372024536
            ],
            "translation" : [
                -0.23471827805042267,
                2.760190963745117,
                -0.2027190625667572
            ]
        },
        {
            "mesh" : 0,
            "name" : "Icosphere",
            "rotation" : [
                -0.032117776572704315,
                0.0028686844743788242,
                0.08891720324754715,
                0.9955168962478638
            ],
            "scale" : [
                0.5127571225166321,
                0.6584107875823975,
                0.5079001188278198
            ],
            "translation" : [
                -0.14786621928215027,
                3.8195033073425293,
                -0.07467453926801682
            ]
        },
        {
            "mesh" : 1,
            "name" : "Icosphere.001",
            "rotation" : [
                -0.032117776572704315,
                0.0028686844743788242,
                0.08891720324754715,
                0.9955168962478638
            ],
            "scale" : [
                0.3801325261592865,
                0.3801325261592865,
                0.3801325261592865
            ],
            "translation" : [
                0.7881613373756409,
                3.396794319152832,
                -0.0035264864563941956
            ]
        },
        {
            "mesh" : 2,
            "name" : "Icosphere.002",
            "rotation" : [
                -0.032117776572704315,
                0.0028686844743788242,
                0.08891720324754715,
                0.9955168962478638
            ],
            "scale" : [
                0.28364264965057373,
                0.28364264965057373,
                0.28364264965057373
            ],
            "translation" : [
                -0.6282171607017517,
                3.0298876762390137,
                -0.025793109089136124
            ]
        }
    ],
    "materials" : [
        {
            "doubleSided" : true,
            "emissiveFactor" : [
                0,
                0,
                0
            ],
            "name" : "Material.001",
            "pbrMetallicRoughness" : {
                "baseColorFactor" : [
                    0.08915114402770996,
                    0.3588438928127289,
                    0.00880191195756197,
                    1
                ],
                "metallicFactor" : 0,
                "roughnessFactor" : 0.5
            }
        },
        {
            "doubleSided" : true,
            "emissiveFactor" : [
                0,
                0,
                0
            ],
            "name" : "Material.002",
            "pbrMetallicRoughness" : {
                "baseColorFactor" : [
                    0.06422112137079239,
                    0.8000000715255737,
                    0.19444093108177185,
                    1
                ],
                "metallicFactor" : 0,
                "roughnessFactor" : 0.5
            }
        },
        {
            "doubleSided" : true,
            "emissiveFactor" : [
                0,
                0,
                0
            ],
            "name" : "Material.003",
            "pbrMetallicRoughness" : {
                "baseColorFactor" : [
                    0.35975387692451477,
                    0.8000000715255737,
                    0.2149752378463745,
                    1
                ],
                "metallicFactor" : 0,
                "roughnessFactor" : 0.5
            }
        }
    ],
    "meshes" : [
        {
            "name" : "Icosphere",
            "primitives" : [
                {
                    "attributes" : {
                        "POSITION" : 0,
                        "NORMAL" : 1,
                        "TEXCOORD_0" : 2
                    },
                    "indices" : 3,
                    "material" : 0
                }
            ]
        },
        {
            "name" : "Icosphere.001",
            "primitives" : [
                {
                    "attributes" : {
                        "POSITION" : 4,
                        "NORMAL" : 5,
                        "TEXCOORD_0" : 6
                    },
                    "indices" : 3,
                    "material" : 1
                }
            ]
        },
        {
            "name" : "Icosphere.002",
            "primitives" : [
                {
                    "attributes" : {
                        "POSITION" : 7,
                        "NORMAL" : 8,
                        "TEXCOORD_0" : 9
                    },
                    "indices" : 3,
                    "material" : 2
                }
            ]
        }
    ],
    "accessors" : [
        {
            "bufferView" : 0,
            "componentType" : 5126,
            "count" : 240,
            "max" : [
                1.6353354454040527,
                1.0025973320007324,
                1.259938359260559
            ],
            "min" : [
                -1.6353354454040527,
                -1.4696975946426392,
                -1.589585304260254
            ],
            "type" : "VEC3"
        },
        {
            "bufferView" : 1,
            "componentType" : 5126,
            "count" : 240,
            "type" : "VEC3"
        },
        {
            "bufferView" : 2,
            "componentType" : 5126,
            "count" : 240,
            "type" : "VEC2"
        },
        {
            "bufferView" : 3,
            "componentType" : 5123,
            "count" : 240,
            "type" : "SCALAR"
        },
        {
            "bufferView" : 4,
            "componentType" : 5126,
            "count" : 240,
            "max" : [
                1.5667355060577393,
                1.259432077407837,
                1.667809247970581
            ],
            "min" : [
                -1.5159921646118164,
                -1.5917490720748901,
                -1.724960207939148
            ],
            "type" : "VEC3"
        },
        {
            "bufferView" : 5,
            "componentType" : 5126,
            "count" : 240,
            "type" : "VEC3"
        },
        {
            "bufferView" : 6,
            "componentType" : 5126,
            "count" : 240,
            "type" : "VEC2"
        },
        {
            "bufferView" : 7,
            "componentType" : 5126,
            "count" : 240,
            "max" : [
                1.5408140420913696,
                1.0088276863098145,
                1.5673106908798218
            ],
            "min" : [
                -1.5408140420913696,
                -1.4664932489395142,
                -1.4143372774124146
            ],
            "type" : "VEC3"
        },
        {
            "bufferView" : 8,
            "componentType" : 5126,
            "count" : 240,
            "type" : "VEC3"
        },
        {
            "bufferView" : 9,
            "componentType" : 5126,
            "count" : 240,
            "type" : "VEC2"
        }
    ],
    "bufferViews" : [
        {
            "buffer" : 0,
            "byteLength" : 2880,
            "byteOffset" : 0
        },
        {
            "buffer" : 0,
            "byteLength" : 2880,
            "byteOffset" : 2880
        },
        {
            "buffer" : 0,
            "byteLength" : 1920,
            "byteOffset" : 5760
        },
        {
            "buffer" : 0,
            "byteLength" : 480,
            "byteOffset" : 7680
        },
        {
            "buffer" : 0,
            "byteLength" : 2880,
            "byteOffset" : 8160
        },
        {
            "buffer" : 0,
            "byteLength" : 2880,
            "byteOffset" : 11040
        },
        {
            "buffer" : 0,
            "byteLength" : 1920,
            "byteOffset" : 13920
        },
        {
            "buffer" : 0,
            "byteLength" : 2880,
            "byteOffset" : 15840
        },
        {
            "buffer" : 0,
            "byteLength" : 2880,
            "byteOffset" : 18720
        },
        {
            "buffer" : 0,
            "byteLength" : 1920,
            "byteOffset" : 21600
        }
    ],
    "buffers" : [
        {
            "byteLength" : 23520,
            "uri" : "data:application/octet-stream;base64,"
        }
    ]
}
