{
    "asset" : {
        "generator" : "Khronos glTF Blender I/O v1.1.46",
        "version" : "2.0"
    },
    "scene" : 0,
    "scenes" : [
        {
            "name" : "Scene",
            "nodes" : [
                0,
                1,
                2,
                3,
                4,
                5,
                6,
                7,
                8,
                9
            ]
        }
    ],
    "nodes" : [
        {
            "mesh" : 0,
            "name" : "Cylinder.001",
            "translation" : [
                0.9528036117553711,
                1.329795002937317,
                -5.813182353973389
            ]
        },
        {
            "mesh" : 1,
            "name" : "Cylinder.002",
            "scale" : [
                1.0609952211380005,
                1.0609952211380005,
                1.0609952211380005
            ],
            "translation" : [
                0.9651685953140259,
                1.2795279026031494,
                -5.805832862854004
            ]
        },
        {
            "name" : "Cube",
            "scale" : [
                0.36288392543792725,
                0.36288392543792725,
                0.36288392543792725
            ],
            "translation" : [
                -0.12690487504005432,
                3.3751933574676514,
                -6.131463527679443
            ]
        },
        {
            "mesh" : 2,
            "name" : "Icosphere",
            "scale" : [
                0.6971368789672852,
                0.6971368789672852,
                0.6971368789672852
            ],
            "translation" : [
                -0.507321834564209,
                6.017012119293213,
                -4.620959758758545
            ]
        },
        {
            "mesh" : 3,
            "name" : "Icosphere.001",
            "rotation" : [
                -0.7356501817703247,
                -0.0972934365272522,
                -0.11077490448951721,
                0.6611215472221375
            ],
            "scale" : [
                0.8518176078796387,
                0.8539479970932007,
                1.019911289215088
            ],
            "translation" : [
                -0.6717451810836792,
                6.505605697631836,
                -6.917743682861328
            ]
        },
        {
            "mesh" : 4,
            "name" : "Icosphere.003",
            "rotation" : [
                -0.8304929733276367,
                -0.2708265781402588,
                -0.03837617486715317,
                0.48524391651153564
            ],
            "scale" : [
                0.5030685067176819,
                0.5030685663223267,
                0.5030685663223267
            ],
            "translation" : [
                0.25047561526298523,
                4.975208759307861,
                -7.038468360900879
            ]
        },
        {
            "mesh" : 5,
            "name" : "Cube.004",
            "rotation" : [
                -0.8355304002761841,
                -0.4759945869445801,
                0.008433002978563309,
                -0.27431192994117737
            ],
            "scale" : [
                0.11907604336738586,
                0.11907605081796646,
                0.11907605826854706
            ],
            "translation" : [
                2.652271270751953,
                2.5168910026550293,
                -7.624996662139893
            ]
        },
        {
            "name" : "Point",
            "translation" : [
                -2.4275741577148438,
                12.259947776794434,
                -0.22059059143066406
            ]
        },
        {
            "name" : "Camera",
            "rotation" : [
                0.4942062497138977,
                0.4608178734779358,
                -0.34713852405548096,
                0.6503090858459473
            ],
            "scale" : [
                1.3399999141693115,
                1,
                1.1200000047683716
            ],
            "translation" : [
                14.008707046508789,
                7.961526870727539,
                -1.7140023708343506
            ]
        },
        {
            "mesh" : 6,
            "name" : "Cube.001",
            "rotation" : [
                -0.3763151168823242,
                -0.2620219886302948,
                -0.052410464733839035,
                0.8871214985847473
            ],
            "scale" : [
                0.45572200417518616,
                0.5086274147033691,
                0.46117153763771057
            ],
            "translation" : [
                1.8047736883163452,
                2.8939270973205566,
                -5.189997673034668
            ]
        }
    ],
    "materials" : [
        {
            "doubleSided" : true,
            "emissiveFactor" : [
                0,
                0,
                0
            ],
            "name" : "Material.002",
            "pbrMetallicRoughness" : {
                "baseColorFactor" : [
                    0.0469617061316967,
                    0.029533781111240387,
                    0.02777962014079094,
                    1
                ],
                "metallicFactor" : 0,
                "roughnessFactor" : 0.5151515007019043
            }
        },
        {
            "doubleSided" : true,
            "emissiveFactor" : [
                0,
                0,
                0
            ],
            "name" : "Material.001",
            "pbrMetallicRoughness" : {
                "baseColorFactor" : [
                    0.2665294408798218,
                    0.7356570959091187,
                    0.044292159378528595,
                    1
                ],
                "metallicFactor" : 0,
                "roughnessFactor" : 0.5
            }
        },
        {
            "doubleSided" : true,
            "emissiveFactor" : [
                0,
                0,
                0
            ],
            "name" : "Material.004",
            "pbrMetallicRoughness" : {
                "baseColorFactor" : [
                    0.16565728187561035,
                    0.8000000715255737,
                    0.18649771809577942,
                    1
                ],
                "metallicFactor" : 0,
                "roughnessFactor" : 0.5
            }
        },
        {
            "doubleSided" : true,
            "emissiveFactor" : [
                0,
                0,
                0
            ],
            "name" : "Material.005",
            "pbrMetallicRoughness" : {
                "baseColorFactor" : [
                    0.00919242762029171,
                    0.8000000715255737,
                    0.06805632263422012,
                    1
                ],
                "metallicFactor" : 0,
                "roughnessFactor" : 0.5
            }
        },
        {
            "doubleSided" : true,
            "emissiveFactor" : [
                0,
                0,
                0
            ],
            "name" : "Material.009",
            "pbrMetallicRoughness" : {
                "baseColorFactor" : [
                    0.03400781378149986,
                    0.039679642766714096,
                    0.03409633785486221,
                    1
                ],
                "metallicFactor" : 0,
                "roughnessFactor" : 1
            }
        }
    ],
    "meshes" : [
        {
            "name" : "Cylinder.001",
            "primitives" : [
                {
                    "attributes" : {
                        "POSITION" : 0,
                        "NORMAL" : 1,
                        "TEXCOORD_0" : 2
                    },
                    "indices" : 3,
                    "material" : 0
                }
            ]
        },
        {
            "name" : "Cylinder.002",
            "primitives" : [
                {
                    "attributes" : {
                        "POSITION" : 4,
                        "NORMAL" : 5,
                        "TEXCOORD_0" : 6
                    },
                    "indices" : 7,
                    "material" : 1
                }
            ]
        },
        {
            "name" : "Icosphere.002",
            "primitives" : [
                {
                    "attributes" : {
                        "POSITION" : 8,
                        "NORMAL" : 9,
                        "TEXCOORD_0" : 10
                    },
                    "indices" : 11,
                    "material" : 2
                }
            ]
        },
        {
            "name" : "Icosphere.003",
            "primitives" : [
                {
                    "attributes" : {
                        "POSITION" : 12,
                        "NORMAL" : 13,
                        "TEXCOORD_0" : 14
                    },
                    "indices" : 11,
                    "material" : 1
                }
            ]
        },
        {
            "name" : "Icosphere.005",
            "primitives" : [
                {
                    "attributes" : {
                        "POSITION" : 15,
                        "NORMAL" : 16,
                        "TEXCOORD_0" : 17
                    },
                    "indices" : 11,
                    "material" : 3
                }
            ]
        },
        {
            "name" : "Cube.006",
            "primitives" : [
                {
                    "attributes" : {
                        "POSITION" : 18,
                        "NORMAL" : 19,
                        "TEXCOORD_0" : 20
                    },
                    "indices" : 21,
                    "material" : 4
                }
            ]
        },
        {
            "name" : "Cube.007",
            "primitives" : [
                {
                    "attributes" : {
                        "POSITION" : 22,
                        "NORMAL" : 23,
                        "TEXCOORD_0" : 24
                    },
                    "indices" : 25,
                    "material" : 4
                }
            ]
        }
    ],
    "accessors" : [
        {
            "bufferView" : 0,
            "componentType" : 5126,
            "count" : 2216,
            "max" : [
                3.0246944427490234,
                1.1256129741668701,
                3.0695078372955322
            ],
            "min" : [
                -3.05381178855896,
                -3.1063950061798096,
                -3.08473801612854
            ],
            "type" : "VEC3"
        },
        {
            "bufferView" : 1,
            "componentType" : 5126,
            "count" : 2216,
            "type" : "VEC3"
        },
        {
            "bufferView" : 2,
            "componentType" : 5126,
            "count" : 2216,
            "type" : "VEC2"
        },
        {
            "bufferView" : 3,
            "componentType" : 5123,
            "count" : 3366,
            "type" : "SCALAR"
        },
        {
            "bufferView" : 4,
            "componentType" : 5126,
            "count" : 458,
            "max" : [
                2.9311506748199463,
                2.019373893737793,
                2.95926570892334
            ],
            "min" : [
                -2.904247760772705,
                0.7752513885498047,
                -2.8759844303131104
            ],
            "type" : "VEC3"
        },
        {
            "bufferView" : 5,
            "componentType" : 5126,
            "count" : 458,
            "type" : "VEC3"
        },
        {
            "bufferView" : 6,
            "componentType" : 5126,
            "count" : 458,
            "type" : "VEC2"
        },
        {
            "bufferView" : 7,
            "componentType" : 5123,
            "count" : 840,
            "type" : "SCALAR"
        },
        {
            "bufferView" : 8,
            "componentType" : 5126,
            "count" : 240,
            "max" : [
                1.2863757610321045,
                1.2256054878234863,
                1.0932890176773071
            ],
            "min" : [
                -1.0270346403121948,
                -1.1711379289627075,
                -1.388700246810913
            ],
            "type" : "VEC3"
        },
        {
            "bufferView" : 9,
            "componentType" : 5126,
            "count" : 240,
            "type" : "VEC3"
        },
        {
            "bufferView" : 10,
            "componentType" : 5126,
            "count" : 240,
            "type" : "VEC2"
        },
        {
            "bufferView" : 11,
            "componentType" : 5123,
            "count" : 240,
            "type" : "SCALAR"
        },
        {
            "bufferView" : 12,
            "componentType" : 5126,
            "count" : 240,
            "max" : [
                1.2863757610321045,
                1.2256054878234863,
                1.0060609579086304
            ],
            "min" : [
                -1.0270346403121948,
                -1.1711379289627075,
                -1.388700246810913
            ],
            "type" : "VEC3"
        },
        {
            "bufferView" : 13,
            "componentType" : 5126,
            "count" : 240,
            "type" : "VEC3"
        },
        {
            "bufferView" : 14,
            "componentType" : 5126,
            "count" : 240,
            "type" : "VEC2"
        },
        {
            "bufferView" : 15,
            "componentType" : 5126,
            "count" : 240,
            "max" : [
                1.2863757610321045,
                1.2256054878234863,
                1.0060609579086304
            ],
            "min" : [
                -1.0270346403121948,
                -1.1711379289627075,
                -1.388700246810913
            ],
            "type" : "VEC3"
        },
        {
            "bufferView" : 16,
            "componentType" : 5126,
            "count" : 240,
            "type" : "VEC3"
        },
        {
            "bufferView" : 17,
            "componentType" : 5126,
            "count" : 240,
            "type" : "VEC2"
        },
        {
            "bufferView" : 18,
            "componentType" : 5126,
            "count" : 96,
            "max" : [
                1.2471206188201904,
                1.189024567604065,
                1.0571215152740479
            ],
            "min" : [
                -1.2598991394042969,
                -1.2584837675094604,
                -1.4373161792755127
            ],
            "type" : "VEC3"
        },
        {
            "bufferView" : 19,
            "componentType" : 5126,
            "count" : 96,
            "type" : "VEC3"
        },
        {
            "bufferView" : 20,
            "componentType" : 5126,
            "count" : 96,
            "type" : "VEC2"
        },
        {
            "bufferView" : 21,
            "componentType" : 5123,
            "count" : 144,
            "type" : "SCALAR"
        },
        {
            "bufferView" : 22,
            "componentType" : 5126,
            "count" : 96,
            "max" : [
                1.4139294624328613,
                1.2628982067108154,
                1.3853038549423218
            ],
            "min" : [
                -1.2561622858047485,
                -1.3531184196472168,
                -1.752270221710205
            ],
            "type" : "VEC3"
        },
        {
            "bufferView" : 23,
            "componentType" : 5126,
            "count" : 96,
            "type" : "VEC3"
        },
        {
            "bufferView" : 24,
            "componentType" : 5126,
            "count" : 96,
            "type" : "VEC2"
        },
        {
            "bufferView" : 25,
            "componentType" : 5123,
            "count" : 144,
            "type" : "SCALAR"
        }
    ],
    "bufferViews" : [
        {
            "buffer" : 0,
            "byteLength" : 26592,
            "byteOffset" : 0
        },
        {
            "buffer" : 0,
            "byteLength" : 26592,
            "byteOffset" : 26592
        },
        {
            "buffer" : 0,
            "byteLength" : 17728,
            "byteOffset" : 53184
        },
        {
            "buffer" : 0,
            "byteLength" : 6732,
            "byteOffset" : 70912
        },
        {
            "buffer" : 0,
            "byteLength" : 5496,
            "byteOffset" : 77644
        },
        {
            "buffer" : 0,
            "byteLength" : 5496,
            "byteOffset" : 83140
        },
        {
            "buffer" : 0,
            "byteLength" : 3664,
            "byteOffset" : 88636
        },
        {
            "buffer" : 0,
            "byteLength" : 1680,
            "byteOffset" : 92300
        },
        {
            "buffer" : 0,
            "byteLength" : 2880,
            "byteOffset" : 93980
        },
        {
            "buffer" : 0,
            "byteLength" : 2880,
            "byteOffset" : 96860
        },
        {
            "buffer" : 0,
            "byteLength" : 1920,
            "byteOffset" : 99740
        },
        {
            "buffer" : 0,
            "byteLength" : 480,
            "byteOffset" : 101660
        },
        {
            "buffer" : 0,
            "byteLength" : 2880,
            "byteOffset" : 102140
        },
        {
            "buffer" : 0,
            "byteLength" : 2880,
            "byteOffset" : 105020
        },
        {
            "buffer" : 0,
            "byteLength" : 1920,
            "byteOffset" : 107900
        },
        {
            "buffer" : 0,
            "byteLength" : 2880,
            "byteOffset" : 109820
        },
        {
            "buffer" : 0,
            "byteLength" : 2880,
            "byteOffset" : 112700
        },
        {
            "buffer" : 0,
            "byteLength" : 1920,
            "byteOffset" : 115580
        },
        {
            "buffer" : 0,
            "byteLength" : 1152,
            "byteOffset" : 117500
        },
        {
            "buffer" : 0,
            "byteLength" : 1152,
            "byteOffset" : 118652
        },
        {
            "buffer" : 0,
            "byteLength" : 768,
            "byteOffset" : 119804
        },
        {
            "buffer" : 0,
            "byteLength" : 288,
            "byteOffset" : 120572
        },
        {
            "buffer" : 0,
            "byteLength" : 1152,
            "byteOffset" : 120860
        },
        {
            "buffer" : 0,
            "byteLength" : 1152,
            "byteOffset" : 122012
        },
        {
            "buffer" : 0,
            "byteLength" : 768,
            "byteOffset" : 123164
        },
        {
            "buffer" : 0,
            "byteLength" : 288,
            "byteOffset" : 123932
        }
    ],
    "buffers" : [
        {
            "byteLength" : 124220,
            "uri" : "data:application/octet-stream;base64,"
        }
    ]
}
