{
    "asset" : {
        "generator" : "Khronos glTF Blender I/O v1.2.75",
        "version" : "2.0"
    },
    "scene" : 0,
    "scenes" : [
        {
            "name" : "Scene",
            "nodes" : [
                0,
                1,
                2,
                3,
                4,
                5
            ]
        }
    ],
    "nodes" : [
        {
            "mesh" : 0,
            "name" : "Plane",
            "rotation" : [
                -0.032117776572704315,
                0.0028686844743788242,
                0.08891720324754715,
                0.9955168962478638
            ],
            "translation" : [
                0.4734014868736267,
                0.03209805488586426,
                0.16996176540851593
            ]
        },
        {
            "mesh" : 1,
            "name" : "Plane.001",
            "rotation" : [
                -0.027570707723498344,
                0.019987691193819046,
                -0.3118581175804138,
                0.9495182037353516
            ],
            "scale" : [
                0.4627881646156311,
                0.6925854682922363,
                0.3307592570781708
            ],
            "translation" : [
                0.2704107463359833,
                2.1131536960601807,
                0.07969547808170319
            ]
        },
        {
            "mesh" : 2,
            "name" : "Plane.002",
            "rotation" : [
                -0.4406338930130005,
                0.854893684387207,
                -0.18724696338176727,
                0.1998426765203476
            ],
            "scale" : [
                0.34502559900283813,
                0.5163479447364807,
                0.24659322202205658
            ],
            "translation" : [
                -0.2950233519077301,
                2.749234914779663,
                -0.17747512459754944
            ]
        },
        {
            "mesh" : 3,
            "name" : "Icosphere",
            "rotation" : [
                -0.032117776572704315,
                0.0028686844743788242,
                0.08891720324754715,
                0.9955168962478638
            ],
            "scale" : [
                0.5156588554382324,
                0.7249387502670288,
                0.50829017162323
            ],
            "translation" : [
                -0.14786621928215027,
                3.8195033073425293,
                -0.07467453926801682
            ]
        },
        {
            "mesh" : 4,
            "name" : "Icosphere.001",
            "rotation" : [
                -0.032117776572704315,
                0.0028686844743788242,
                0.08891720324754715,
                0.9955168962478638
            ],
            "scale" : [
                0.3801325261592865,
                0.3801325261592865,
                0.3801325261592865
            ],
            "translation" : [
                0.7881613373756409,
                3.396794319152832,
                -0.0035264864563941956
            ]
        },
        {
            "mesh" : 5,
            "name" : "Icosphere.002",
            "rotation" : [
                -0.032117776572704315,
                0.0028686844743788242,
                0.08891720324754715,
                0.9955168962478638
            ],
            "scale" : [
                0.23957960307598114,
                0.29523566365242004,
                0.23776742815971375
            ],
            "translation" : [
                -0.7032052278518677,
                3.0028936862945557,
                -0.0019183401018381119
            ]
        }
    ],
    "materials" : [
        {
            "doubleSided" : true,
            "emissiveFactor" : [
                0,
                0,
                0
            ],
            "name" : "Material",
            "pbrMetallicRoughness" : {
                "baseColorFactor" : [
                    0.09083963930606842,
                    0.025989579036831856,
                    0.01586812734603882,
                    1
                ],
                "metallicFactor" : 0,
                "roughnessFactor" : 0.4000000059604645
            }
        },
        {
            "doubleSided" : true,
            "emissiveFactor" : [
                0,
                0,
                0
            ],
            "name" : "Material.001",
            "pbrMetallicRoughness" : {
                "baseColorFactor" : [
                    0.08915114402770996,
                    0.3588438928127289,
                    0.00880191195756197,
                    1
                ],
                "metallicFactor" : 0,
                "roughnessFactor" : 0.5
            }
        },
        {
            "doubleSided" : true,
            "emissiveFactor" : [
                0,
                0,
                0
            ],
            "name" : "Material.002",
            "pbrMetallicRoughness" : {
                "baseColorFactor" : [
                    0.06422112137079239,
                    0.8000000715255737,
                    0.19444093108177185,
                    1
                ],
                "metallicFactor" : 0,
                "roughnessFactor" : 0.5
            }
        },
        {
            "doubleSided" : true,
            "emissiveFactor" : [
                0,
                0,
                0
            ],
            "name" : "Material.003",
            "pbrMetallicRoughness" : {
                "baseColorFactor" : [
                    0.35975387692451477,
                    0.8000000715255737,
                    0.2149752378463745,
                    1
                ],
                "metallicFactor" : 0,
                "roughnessFactor" : 0.5
            }
        }
    ],
    "meshes" : [
        {
            "name" : "Plane.002",
            "primitives" : [
                {
                    "attributes" : {
                        "POSITION" : 0,
                        "NORMAL" : 1
                    },
                    "indices" : 2,
                    "material" : 0
                }
            ]
        },
        {
            "name" : "Plane.004",
            "primitives" : [
                {
                    "attributes" : {
                        "POSITION" : 3,
                        "NORMAL" : 4
                    },
                    "indices" : 5,
                    "material" : 0
                }
            ]
        },
        {
            "name" : "Plane.005",
            "primitives" : [
                {
                    "attributes" : {
                        "POSITION" : 6,
                        "NORMAL" : 7
                    },
                    "indices" : 8,
                    "material" : 0
                }
            ]
        },
        {
            "name" : "Icosphere",
            "primitives" : [
                {
                    "attributes" : {
                        "POSITION" : 9,
                        "NORMAL" : 10,
                        "TEXCOORD_0" : 11
                    },
                    "indices" : 12,
                    "material" : 1
                }
            ]
        },
        {
            "name" : "Icosphere.001",
            "primitives" : [
                {
                    "attributes" : {
                        "POSITION" : 13,
                        "NORMAL" : 14,
                        "TEXCOORD_0" : 15
                    },
                    "indices" : 12,
                    "material" : 2
                }
            ]
        },
        {
            "name" : "Icosphere.002",
            "primitives" : [
                {
                    "attributes" : {
                        "POSITION" : 16,
                        "NORMAL" : 17,
                        "TEXCOORD_0" : 18
                    },
                    "indices" : 12,
                    "material" : 3
                }
            ]
        }
    ],
    "accessors" : [
        {
            "bufferView" : 0,
            "componentType" : 5126,
            "count" : 280,
            "max" : [
                0.3570868670940399,
                3.44925594329834,
                0.2618970572948456
            ],
            "min" : [
                -0.2532074451446533,
                -0.07033541798591614,
                -0.2618970572948456
            ],
            "type" : "VEC3"
        },
        {
            "bufferView" : 1,
            "componentType" : 5126,
            "count" : 280,
            "type" : "VEC3"
        },
        {
            "bufferView" : 2,
            "componentType" : 5123,
            "count" : 420,
            "type" : "SCALAR"
        },
        {
            "bufferView" : 3,
            "componentType" : 5126,
            "count" : 152,
            "max" : [
                0.20312535762786865,
                1.6827073097229004,
                0.14897972345352173
            ],
            "min" : [
                -0.5170247554779053,
                -0.18968918919563293,
                -0.2706162631511688
            ],
            "type" : "VEC3"
        },
        {
            "bufferView" : 4,
            "componentType" : 5126,
            "count" : 152,
            "type" : "VEC3"
        },
        {
            "bufferView" : 5,
            "componentType" : 5123,
            "count" : 228,
            "type" : "SCALAR"
        },
        {
            "bufferView" : 6,
            "componentType" : 5126,
            "count" : 264,
            "max" : [
                1.2765023708343506,
                0.7028523683547974,
                0.4136885404586792
            ],
            "min" : [
                0.370351105928421,
                -1.5406920909881592,
                -1.7716989517211914
            ],
            "type" : "VEC3"
        },
        {
            "bufferView" : 7,
            "componentType" : 5126,
            "count" : 264,
            "type" : "VEC3"
        },
        {
            "bufferView" : 8,
            "componentType" : 5123,
            "count" : 396,
            "type" : "SCALAR"
        },
        {
            "bufferView" : 9,
            "componentType" : 5126,
            "count" : 240,
            "max" : [
                1.6353354454040527,
                1.0025973320007324,
                1.259938359260559
            ],
            "min" : [
                -1.6353354454040527,
                -1.4696975946426392,
                -1.589585304260254
            ],
            "type" : "VEC3"
        },
        {
            "bufferView" : 10,
            "componentType" : 5126,
            "count" : 240,
            "type" : "VEC3"
        },
        {
            "bufferView" : 11,
            "componentType" : 5126,
            "count" : 240,
            "type" : "VEC2"
        },
        {
            "bufferView" : 12,
            "componentType" : 5123,
            "count" : 240,
            "type" : "SCALAR"
        },
        {
            "bufferView" : 13,
            "componentType" : 5126,
            "count" : 240,
            "max" : [
                1.5667355060577393,
                1.259432077407837,
                1.667809247970581
            ],
            "min" : [
                -1.5159921646118164,
                -1.5917490720748901,
                -1.724960207939148
            ],
            "type" : "VEC3"
        },
        {
            "bufferView" : 14,
            "componentType" : 5126,
            "count" : 240,
            "type" : "VEC3"
        },
        {
            "bufferView" : 15,
            "componentType" : 5126,
            "count" : 240,
            "type" : "VEC2"
        },
        {
            "bufferView" : 16,
            "componentType" : 5126,
            "count" : 240,
            "max" : [
                1.5408140420913696,
                1.0088276863098145,
                1.5673106908798218
            ],
            "min" : [
                -1.5408140420913696,
                -1.4664932489395142,
                -1.4143372774124146
            ],
            "type" : "VEC3"
        },
        {
            "bufferView" : 17,
            "componentType" : 5126,
            "count" : 240,
            "type" : "VEC3"
        },
        {
            "bufferView" : 18,
            "componentType" : 5126,
            "count" : 240,
            "type" : "VEC2"
        }
    ],
    "bufferViews" : [
        {
            "buffer" : 0,
            "byteLength" : 3360,
            "byteOffset" : 0
        },
        {
            "buffer" : 0,
            "byteLength" : 3360,
            "byteOffset" : 3360
        },
        {
            "buffer" : 0,
            "byteLength" : 840,
            "byteOffset" : 6720
        },
        {
            "buffer" : 0,
            "byteLength" : 1824,
            "byteOffset" : 7560
        },
        {
            "buffer" : 0,
            "byteLength" : 1824,
            "byteOffset" : 9384
        },
        {
            "buffer" : 0,
            "byteLength" : 456,
            "byteOffset" : 11208
        },
        {
            "buffer" : 0,
            "byteLength" : 3168,
            "byteOffset" : 11664
        },
        {
            "buffer" : 0,
            "byteLength" : 3168,
            "byteOffset" : 14832
        },
        {
            "buffer" : 0,
            "byteLength" : 792,
            "byteOffset" : 18000
        },
        {
            "buffer" : 0,
            "byteLength" : 2880,
            "byteOffset" : 18792
        },
        {
            "buffer" : 0,
            "byteLength" : 2880,
            "byteOffset" : 21672
        },
        {
            "buffer" : 0,
            "byteLength" : 1920,
            "byteOffset" : 24552
        },
        {
            "buffer" : 0,
            "byteLength" : 480,
            "byteOffset" : 26472
        },
        {
            "buffer" : 0,
            "byteLength" : 2880,
            "byteOffset" : 26952
        },
        {
            "buffer" : 0,
            "byteLength" : 2880,
            "byteOffset" : 29832
        },
        {
            "buffer" : 0,
            "byteLength" : 1920,
            "byteOffset" : 32712
        },
        {
            "buffer" : 0,
            "byteLength" : 2880,
            "byteOffset" : 34632
        },
        {
            "buffer" : 0,
            "byteLength" : 2880,
            "byteOffset" : 37512
        },
        {
            "buffer" : 0,
            "byteLength" : 1920,
            "byteOffset" : 40392
        }
    ],
    "buffers" : [
        {
            "byteLength" : 42312,
            "uri" : "data:application/octet-stream;base64,"
        }
    ]
}
